<svg width="1055" height="192" viewBox="0 0 1055 192" fill="none" xmlns="http://www.w3.org/2000/svg">
<rect width="1055" height="192" fill="white"/>
<g clip-path="url(#clip0_1894_65396)">
<path d="M602.652 177.68C628.355 179.493 660.49 169.297 674.666 146.935C680.536 137.675 684.432 125.795 680.346 115.551C677.251 107.793 664.161 99.0242 661.334 91.1567C658.468 83.1794 658.873 74.1907 660.347 65.8079C664.572 41.7044 641.072 4.07959 591.437 0.0623342C553.804 -2.98162 536.78 26.2842 504.75 30.2824C472.429 34.3139 434.529 10.1246 411.406 30.2824C382.695 55.3163 396.166 80.374 399.661 92.0966C404.148 107.159 382.208 124.349 386.734 146.52C396.853 196.101 470.393 162.666 491.946 160.571C513.839 158.443 535.559 164.679 557.013 169.684C578.466 174.689 601.184 178.453 622.156 171.583L602.657 177.68H602.652Z" fill="#EEF8F8"/>
<path d="M654.39 68.1162C654.39 68.2689 654.4 68.4168 654.404 68.5695C654.953 87.2196 653.036 101.762 649.803 113.088L640.194 119.067L648.096 117.845L648.32 117.812C644.033 130.264 638.11 138.308 632.507 143.48C629.026 146.706 625.669 148.819 622.913 150.188C622.732 150.279 622.555 150.37 622.374 150.451C621.931 150.666 621.502 150.856 621.091 151.028L615.808 151.305C615.736 151.057 615.665 150.818 615.603 150.57C615.555 150.417 615.517 150.26 615.479 150.107C615.422 149.907 615.369 149.697 615.317 149.497C609.07 125.422 616.943 106.213 627.224 92.5251C627.252 92.4774 627.286 92.4344 627.324 92.3915C630.9 87.6395 634.772 83.5554 638.43 80.168L640.766 86.1175L641.1 77.7777C647.476 72.2671 652.778 69.0561 654.08 68.2975C654.28 68.1782 654.39 68.121 654.39 68.121V68.1162Z" fill="#5AB2AC" fill-opacity="0.55"/>
<path d="M654.581 68.2019L654.405 68.5693L643.552 91.3035L643.356 91.7043L640.4 97.9019L640.3 98.1119L630.868 117.874L630.853 117.898L615.479 150.102L615.251 150.584L614.883 151.352L614.421 151.376L614.783 150.608L615.317 149.492L630.491 117.711L630.772 117.125L654.085 68.2926L654.214 68.0254L654.581 68.2019Z" fill="white"/>
<path d="M653.696 88.7783L640.241 98.041L640.441 98.3319L653.896 89.0692L653.696 88.7783Z" fill="white"/>
<path d="M653.774 84.2325L643.224 91.4902L643.424 91.7812L653.974 84.5235L653.774 84.2325Z" fill="white"/>
<path d="M627.563 92.3364L627.213 92.3818L630.524 117.927L630.874 117.882L627.563 92.3364Z" fill="white"/>
<path d="M613.687 155.432C613.687 155.432 626.213 161.353 644.029 150.723L638.249 147.979L647.681 148.356C654.634 143.49 662.268 136.071 670.193 124.902L667.99 123.857L670.852 123.971C672.187 122.063 673.531 120.045 674.881 117.912C674.881 117.912 669.65 117.449 662.168 118.313L658.329 123.513L659.417 118.68C644.119 121.004 621.85 129.019 613.687 155.422V155.432Z" fill="#BED4E2"/>
<path d="M674.784 117.709L612.639 154.058L612.841 154.404L674.986 118.055L674.784 117.709Z" fill="white"/>
<path d="M658.751 127.357L658.713 127.728L667.611 128.646L667.65 128.276L658.751 127.357Z" fill="white"/>
<path d="M654.458 129.735L654.393 130.102L664.768 131.951L664.833 131.584L654.458 129.735Z" fill="white"/>
<path d="M628.33 132.578L628.016 132.225C633.232 127.587 639.584 123.971 646.889 121.471L647.042 121.914C639.794 124.391 633.495 127.974 628.326 132.573L628.33 132.578Z" fill="#2E4882"/>
<path d="M561.08 193.667H548.405C544.28 193.667 540.89 190.456 540.718 186.387L533.57 61.5942C533.389 57.2811 536.884 53.6885 541.257 53.6885H555.873L561.08 193.667Z" fill="#005587"/>
<path d="M623.676 61.5942L619.933 186.387C619.761 190.456 616.371 193.667 612.246 193.667H556.206C552.082 193.667 547.223 190.456 547.051 186.387L543.312 61.5942C543.131 57.2811 546.627 53.6885 550.999 53.6885H615.989C620.362 53.6885 623.857 57.2811 623.676 61.5942Z" fill="#E6EEF3"/>
<path d="M558.782 62.3154H555.778C555.363 62.3154 554.991 62.4824 554.719 62.7544C554.442 63.0311 554.28 63.4032 554.28 63.8183C554.28 64.6485 554.953 65.3164 555.778 65.3164H610.787C611.202 65.3164 611.574 65.1495 611.846 64.8775C612.122 64.6103 612.285 64.2334 612.285 63.8183C612.285 62.9881 611.612 62.3154 610.787 62.3154H558.777H558.782Z" fill="#3F5A9F"/>
<path d="M610.177 111.429H556.812C555.792 111.429 554.957 110.623 554.919 109.606L553.593 74.8728C553.55 73.7993 554.414 72.9023 555.486 72.9023H611.497C612.575 72.9023 613.433 73.7945 613.391 74.8728L612.065 109.606C612.027 110.627 611.187 111.429 610.172 111.429H610.177Z" fill="white"/>
<path d="M571.761 125.875H560.222C559.679 125.875 559.239 126.315 559.239 126.858V133.9C559.239 134.443 559.679 134.883 560.222 134.883H571.761C572.304 134.883 572.744 134.443 572.744 133.9V126.858C572.744 126.315 572.304 125.875 571.761 125.875Z" fill="#005587"/>
<path d="M571.761 140.574H560.222C559.679 140.574 559.239 141.014 559.239 141.557V148.599C559.239 149.142 559.679 149.582 560.222 149.582H571.761C572.304 149.582 572.744 149.142 572.744 148.599V141.557C572.744 141.014 572.304 140.574 571.761 140.574Z" fill="#005587"/>
<path d="M571.761 155.274H560.222C559.679 155.274 559.239 155.714 559.239 156.257V163.299C559.239 163.842 559.679 164.282 560.222 164.282H571.761C572.304 164.282 572.744 163.842 572.744 163.299V156.257C572.744 155.714 572.304 155.274 571.761 155.274Z" fill="#005587"/>
<path d="M571.761 169.974H560.222C559.679 169.974 559.239 170.414 559.239 170.956V177.999C559.239 178.541 559.679 178.981 560.222 178.981H571.761C572.304 178.981 572.744 178.541 572.744 177.999V170.956C572.744 170.414 572.304 169.974 571.761 169.974Z" fill="#005587"/>
<path d="M588.899 125.875H577.359C576.817 125.875 576.377 126.315 576.377 126.858V133.9C576.377 134.443 576.817 134.883 577.359 134.883H588.899C589.442 134.883 589.881 134.443 589.881 133.9V126.858C589.881 126.315 589.442 125.875 588.899 125.875Z" fill="#005587"/>
<path d="M588.899 140.574H577.359C576.817 140.574 576.377 141.014 576.377 141.557V148.599C576.377 149.142 576.817 149.582 577.359 149.582H588.899C589.442 149.582 589.881 149.142 589.881 148.599V141.557C589.881 141.014 589.442 140.574 588.899 140.574Z" fill="#005587"/>
<path d="M588.899 155.274H577.359C576.817 155.274 576.377 155.714 576.377 156.257V163.299C576.377 163.842 576.817 164.282 577.359 164.282H588.899C589.442 164.282 589.881 163.842 589.881 163.299V156.257C589.881 155.714 589.442 155.274 588.899 155.274Z" fill="#005587"/>
<path d="M588.899 169.974H577.359C576.817 169.974 576.377 170.414 576.377 170.956V177.999C576.377 178.541 576.817 178.981 577.359 178.981H588.899C589.442 178.981 589.881 178.541 589.881 177.999V170.956C589.881 170.414 589.442 169.974 588.899 169.974Z" fill="#005587"/>
<path d="M606.038 125.875H594.498C593.955 125.875 593.516 126.315 593.516 126.858V133.9C593.516 134.443 593.955 134.883 594.498 134.883H606.038C606.58 134.883 607.02 134.443 607.02 133.9V126.858C607.02 126.315 606.58 125.875 606.038 125.875Z" fill="#005587"/>
<path d="M606.038 140.574H594.498C593.955 140.574 593.516 141.014 593.516 141.557V148.599C593.516 149.142 593.955 149.582 594.498 149.582H606.038C606.58 149.582 607.02 149.142 607.02 148.599V141.557C607.02 141.014 606.58 140.574 606.038 140.574Z" fill="#005587"/>
<path d="M606.038 155.274H594.498C593.955 155.274 593.516 155.714 593.516 156.257V163.299C593.516 163.842 593.955 164.282 594.498 164.282H606.038C606.58 164.282 607.02 163.842 607.02 163.299V156.257C607.02 155.714 606.58 155.274 606.038 155.274Z" fill="#005587"/>
<path d="M606.038 169.974H594.498C593.955 169.974 593.516 170.414 593.516 170.956V177.999C593.516 178.541 593.955 178.981 594.498 178.981H606.038C606.58 178.981 607.02 178.541 607.02 177.999V170.956C607.02 170.414 606.58 169.974 606.038 169.974Z" fill="#005587"/>
<path d="M574.208 125.875H562.668C562.125 125.875 561.686 126.315 561.686 126.858V133.9C561.686 134.443 562.125 134.883 562.668 134.883H574.208C574.75 134.883 575.19 134.443 575.19 133.9V126.858C575.19 126.315 574.75 125.875 574.208 125.875Z" fill="#1773B0"/>
<path d="M574.208 140.574H562.668C562.125 140.574 561.686 141.014 561.686 141.557V148.599C561.686 149.142 562.125 149.582 562.668 149.582H574.208C574.75 149.582 575.19 149.142 575.19 148.599V141.557C575.19 141.014 574.75 140.574 574.208 140.574Z" fill="#1773B0"/>
<path d="M574.208 155.274H562.668C562.125 155.274 561.686 155.714 561.686 156.257V163.299C561.686 163.842 562.125 164.282 562.668 164.282H574.208C574.75 164.282 575.19 163.842 575.19 163.299V156.257C575.19 155.714 574.75 155.274 574.208 155.274Z" fill="#1773B0"/>
<path d="M574.208 169.974H562.668C562.125 169.974 561.686 170.414 561.686 170.956V177.999C561.686 178.541 562.125 178.981 562.668 178.981H574.208C574.75 178.981 575.19 178.541 575.19 177.999V170.956C575.19 170.414 574.75 169.974 574.208 169.974Z" fill="#005587"/>
<path d="M591.345 125.875H579.806C579.263 125.875 578.823 126.315 578.823 126.858V133.9C578.823 134.443 579.263 134.883 579.806 134.883H591.345C591.888 134.883 592.328 134.443 592.328 133.9V126.858C592.328 126.315 591.888 125.875 591.345 125.875Z" fill="#1773B0"/>
<path d="M591.345 140.574H579.806C579.263 140.574 578.823 141.014 578.823 141.557V148.599C578.823 149.142 579.263 149.582 579.806 149.582H591.345C591.888 149.582 592.328 149.142 592.328 148.599V141.557C592.328 141.014 591.888 140.574 591.345 140.574Z" fill="#1773B0"/>
<path d="M591.345 155.274H579.806C579.263 155.274 578.823 155.714 578.823 156.257V163.299C578.823 163.842 579.263 164.282 579.806 164.282H591.345C591.888 164.282 592.328 163.842 592.328 163.299V156.257C592.328 155.714 591.888 155.274 591.345 155.274Z" fill="#1773B0"/>
<path d="M591.345 169.974H579.806C579.263 169.974 578.823 170.414 578.823 170.956V177.999C578.823 178.541 579.263 178.981 579.806 178.981H591.345C591.888 178.981 592.328 178.541 592.328 177.999V170.956C592.328 170.414 591.888 169.974 591.345 169.974Z" fill="#1773B0"/>
<path d="M608.489 125.875H596.949C596.407 125.875 595.967 126.315 595.967 126.858V133.9C595.967 134.443 596.407 134.883 596.949 134.883H608.489C609.031 134.883 609.471 134.443 609.471 133.9V126.858C609.471 126.315 609.031 125.875 608.489 125.875Z" fill="#1773B0"/>
<path d="M608.489 140.574H596.949C596.407 140.574 595.967 141.014 595.967 141.557V148.599C595.967 149.142 596.407 149.582 596.949 149.582H608.489C609.031 149.582 609.471 149.142 609.471 148.599V141.557C609.471 141.014 609.031 140.574 608.489 140.574Z" fill="#1773B0"/>
<path d="M608.489 155.274H596.949C596.407 155.274 595.967 155.714 595.967 156.257V163.299C595.967 163.842 596.407 164.282 596.949 164.282H608.489C609.031 164.282 609.471 163.842 609.471 163.299V156.257C609.471 155.714 609.031 155.274 608.489 155.274Z" fill="#1773B0"/>
<path d="M608.489 169.974H596.949C596.407 169.974 595.967 170.414 595.967 170.956V177.999C595.967 178.541 596.407 178.981 596.949 178.981H608.489C609.031 178.981 609.471 178.541 609.471 177.999V170.956C609.471 170.414 609.031 169.974 608.489 169.974Z" fill="#005587"/>
<path d="M572.562 135.131H564.308C562.725 135.131 561.438 133.843 561.438 132.259V128.504C561.438 126.92 562.725 125.632 564.308 125.632H572.562C574.146 125.632 575.433 126.92 575.433 128.504V132.259C575.433 133.843 574.146 135.131 572.562 135.131ZM564.313 126.123C563.002 126.123 561.933 127.192 561.933 128.504V132.259C561.933 133.571 563.002 134.64 564.313 134.64H572.567C573.879 134.64 574.947 133.571 574.947 132.259V128.504C574.947 127.192 573.879 126.123 572.567 126.123H564.313Z" fill="white"/>
<path d="M572.562 149.826H564.308C562.725 149.826 561.438 148.538 561.438 146.954V143.199C561.438 141.615 562.725 140.327 564.308 140.327H572.562C574.146 140.327 575.433 141.615 575.433 143.199V146.954C575.433 148.538 574.146 149.826 572.562 149.826ZM564.313 140.823C563.002 140.823 561.933 141.892 561.933 143.204V146.959C561.933 148.271 563.002 149.34 564.313 149.34H572.567C573.879 149.34 574.947 148.271 574.947 146.959V143.204C574.947 141.892 573.879 140.823 572.567 140.823H564.313Z" fill="white"/>
<path d="M572.562 164.526H564.308C562.725 164.526 561.438 163.237 561.438 161.653V157.899C561.438 156.315 562.725 155.026 564.308 155.026H572.562C574.146 155.026 575.433 156.315 575.433 157.899V161.653C575.433 163.237 574.146 164.526 572.562 164.526ZM564.313 155.518C563.002 155.518 561.933 156.587 561.933 157.899V161.653C561.933 162.965 563.002 164.034 564.313 164.034H572.567C573.879 164.034 574.947 162.965 574.947 161.653V157.899C574.947 156.587 573.879 155.518 572.567 155.518H564.313Z" fill="white"/>
<path d="M572.562 179.226H564.308C562.725 179.226 561.438 177.938 561.438 176.354V172.599C561.438 171.015 562.725 169.727 564.308 169.727H572.562C574.146 169.727 575.433 171.015 575.433 172.599V176.354C575.433 177.938 574.146 179.226 572.562 179.226ZM564.313 170.218C563.002 170.218 561.933 171.287 561.933 172.599V176.354C561.933 177.666 563.002 178.734 564.313 178.734H572.567C573.879 178.734 574.947 177.666 574.947 176.354V172.599C574.947 171.287 573.879 170.218 572.567 170.218H564.313Z" fill="white"/>
<path d="M589.7 135.131H581.446C579.863 135.131 578.575 133.843 578.575 132.259V128.504C578.575 126.92 579.863 125.632 581.446 125.632H589.7C591.283 125.632 592.571 126.92 592.571 128.504V132.259C592.571 133.843 591.283 135.131 589.7 135.131ZM581.451 126.123C580.139 126.123 579.071 127.192 579.071 128.504V132.259C579.071 133.571 580.139 134.64 581.451 134.64H589.705C591.016 134.64 592.084 133.571 592.084 132.259V128.504C592.084 127.192 591.016 126.123 589.705 126.123H581.451Z" fill="white"/>
<path d="M589.7 149.826H581.446C579.863 149.826 578.575 148.538 578.575 146.954V143.199C578.575 141.615 579.863 140.327 581.446 140.327H589.7C591.283 140.327 592.571 141.615 592.571 143.199V146.954C592.571 148.538 591.283 149.826 589.7 149.826ZM581.451 140.823C580.139 140.823 579.071 141.892 579.071 143.204V146.959C579.071 148.271 580.139 149.34 581.451 149.34H589.705C591.016 149.34 592.084 148.271 592.084 146.959V143.204C592.084 141.892 591.016 140.823 589.705 140.823H581.451Z" fill="white"/>
<path d="M589.7 164.526H581.446C579.863 164.526 578.575 163.237 578.575 161.653V157.899C578.575 156.315 579.863 155.026 581.446 155.026H589.7C591.283 155.026 592.571 156.315 592.571 157.899V161.653C592.571 163.237 591.283 164.526 589.7 164.526ZM581.451 155.518C580.139 155.518 579.071 156.587 579.071 157.899V161.653C579.071 162.965 580.139 164.034 581.451 164.034H589.705C591.016 164.034 592.084 162.965 592.084 161.653V157.899C592.084 156.587 591.016 155.518 589.705 155.518H581.451Z" fill="white"/>
<path d="M589.7 179.226H581.446C579.863 179.226 578.575 177.938 578.575 176.354V172.599C578.575 171.015 579.863 169.727 581.446 169.727H589.7C591.283 169.727 592.571 171.015 592.571 172.599V176.354C592.571 177.938 591.283 179.226 589.7 179.226ZM581.451 170.218C580.139 170.218 579.071 171.287 579.071 172.599V176.354C579.071 177.666 580.139 178.734 581.451 178.734H589.705C591.016 178.734 592.084 177.666 592.084 176.354V172.599C592.084 171.287 591.016 170.218 589.705 170.218H581.451Z" fill="white"/>
<path d="M606.844 135.131H598.589C597.006 135.131 595.719 133.843 595.719 132.259V128.504C595.719 126.92 597.006 125.632 598.589 125.632H606.844C608.427 125.632 609.714 126.92 609.714 128.504V132.259C609.714 133.843 608.427 135.131 606.844 135.131ZM598.589 126.123C597.278 126.123 596.21 127.192 596.21 128.504V132.259C596.21 133.571 597.278 134.64 598.589 134.64H606.844C608.155 134.64 609.223 133.571 609.223 132.259V128.504C609.223 127.192 608.155 126.123 606.844 126.123H598.589Z" fill="white"/>
<path d="M606.844 149.826H598.589C597.006 149.826 595.719 148.538 595.719 146.954V143.199C595.719 141.615 597.006 140.327 598.589 140.327H606.844C608.427 140.327 609.714 141.615 609.714 143.199V146.954C609.714 148.538 608.427 149.826 606.844 149.826ZM598.589 140.823C597.278 140.823 596.21 141.892 596.21 143.204V146.959C596.21 148.271 597.278 149.34 598.589 149.34H606.844C608.155 149.34 609.223 148.271 609.223 146.959V143.204C609.223 141.892 608.155 140.823 606.844 140.823H598.589Z" fill="white"/>
<path d="M606.844 164.526H598.589C597.006 164.526 595.719 163.237 595.719 161.653V157.899C595.719 156.315 597.006 155.026 598.589 155.026H606.844C608.427 155.026 609.714 156.315 609.714 157.899V161.653C609.714 163.237 608.427 164.526 606.844 164.526ZM598.589 155.518C597.278 155.518 596.21 156.587 596.21 157.899V161.653C596.21 162.965 597.278 164.034 598.589 164.034H606.844C608.155 164.034 609.223 162.965 609.223 161.653V157.899C609.223 156.587 608.155 155.518 606.844 155.518H598.589Z" fill="white"/>
<path d="M606.844 179.226H598.589C597.006 179.226 595.719 177.938 595.719 176.354V172.599C595.719 171.015 597.006 169.727 598.589 169.727H606.844C608.427 169.727 609.714 171.015 609.714 172.599V176.354C609.714 177.938 608.427 179.226 606.844 179.226ZM598.589 170.218C597.278 170.218 596.21 171.287 596.21 172.599V176.354C596.21 177.666 597.278 178.734 598.589 178.734H606.844C608.155 178.734 609.223 177.666 609.223 176.354V172.599C609.223 171.287 608.155 170.218 606.844 170.218H598.589Z" fill="white"/>
<path d="M605.441 193.997H556.211C551.971 193.997 546.903 190.681 546.726 186.401L542.988 61.6087C542.897 59.4569 543.674 57.4054 545.176 55.8404C546.707 54.2421 548.777 53.3643 551.003 53.3643H615.994C618.221 53.3643 620.29 54.2421 621.821 55.8404C623.323 57.4054 624.1 59.4569 624.009 61.6135L623.804 68.4218L623.146 68.4027L623.351 61.5896C623.432 59.6096 622.722 57.7298 621.344 56.2937C619.937 54.829 618.039 54.0179 615.989 54.0179H550.999C548.953 54.0179 547.05 54.8242 545.644 56.2937C544.266 57.7298 543.555 59.6096 543.636 61.5848L547.375 186.377C547.537 190.294 552.253 193.338 556.201 193.338H605.431V193.997H605.441Z" fill="#3F5A9F"/>
<path d="M622.566 87.5653L620.401 160.125L621.059 160.145L623.224 87.5849L622.566 87.5653Z" fill="#3F5A9F"/>
<path d="M607.774 38.3117V65.316H558.849V38.3117C558.729 36.451 557.881 34.7859 556.593 33.5835C555.301 32.3812 553.56 31.6465 551.677 31.6465H600.602C602.49 31.6465 604.226 32.3812 605.518 33.5835C606.81 34.7859 607.659 36.451 607.774 38.3117Z" fill="white"/>
<path d="M558.848 38.3117H544.495C544.614 36.451 545.463 34.7859 546.755 33.5835C548.048 32.3812 549.788 31.6465 551.672 31.6465C553.555 31.6465 555.296 32.3812 556.588 33.5835C557.876 34.7859 558.729 36.451 558.844 38.3117H558.848Z" fill="#2E4882"/>
<path d="M607.993 65.5354H558.629V38.3115C558.519 36.5844 557.742 34.9575 556.44 33.7456C555.139 32.5338 553.446 31.8706 551.672 31.8706V31.4316H600.597C602.48 31.4316 604.278 32.1378 605.661 33.426C607.044 34.7094 607.869 36.4413 607.988 38.302V38.3163V65.5401L607.993 65.5354ZM559.068 65.0964H607.554V38.3163C607.44 36.5701 606.667 34.9479 605.365 33.7408C604.064 32.529 602.371 31.8658 600.597 31.8658H554.19C555.124 32.2046 555.992 32.7294 556.736 33.4212C558.119 34.7094 558.944 36.4413 559.063 38.2972V65.0964H559.068Z" fill="#2E4882"/>
<path d="M610.792 65.5405H555.782C554.833 65.5405 554.065 64.7676 554.065 63.8229C554.065 63.3649 554.247 62.9308 554.571 62.6063C554.89 62.2819 555.32 62.1006 555.782 62.1006H558.781V62.5395H555.782C555.439 62.5395 555.119 62.6731 554.881 62.9164C554.638 63.1598 554.504 63.4842 554.504 63.8277C554.504 64.5338 555.076 65.1064 555.782 65.1064H610.792C611.135 65.1064 611.455 64.9728 611.693 64.7295C611.936 64.4909 612.07 64.1665 612.07 63.8229C612.07 63.1168 611.497 62.5395 610.792 62.5395H607.788V62.1006H610.792C611.741 62.1006 612.508 62.8735 612.508 63.8229C612.508 64.2857 612.327 64.7151 612.003 65.0396C611.683 65.364 611.254 65.5453 610.792 65.5453V65.5405Z" fill="#2E4882"/>
<path d="M612.875 195.567C612.875 196.779 621.783 197.767 632.765 197.767C643.746 197.767 652.654 196.779 652.654 195.567C652.654 195.543 652.654 195.524 652.644 195.5V189.551H612.889V195.486C612.88 195.515 612.875 195.538 612.875 195.567Z" fill="#F49B51"/>
<path d="M632.765 191.807C643.749 191.807 652.654 190.822 652.654 189.608C652.654 188.393 643.749 187.408 632.765 187.408C621.78 187.408 612.875 188.393 612.875 189.608C612.875 190.822 621.78 191.807 632.765 191.807Z" fill="#FCC659"/>
<path d="M608.178 188.391C608.178 189.603 617.085 190.591 628.067 190.591C639.049 190.591 647.957 189.603 647.957 188.391C647.957 188.367 647.957 188.348 647.947 188.325V182.375H608.192V188.31C608.182 188.339 608.178 188.363 608.178 188.391Z" fill="#F49B51"/>
<path d="M628.067 184.631C639.052 184.631 647.957 183.647 647.957 182.432C647.957 181.217 639.052 180.232 628.067 180.232C617.083 180.232 608.178 181.217 608.178 182.432C608.178 183.647 617.083 184.631 628.067 184.631Z" fill="#FCC659"/>
<path d="M612.875 181.216C612.875 182.427 621.783 183.415 632.765 183.415C643.746 183.415 652.654 182.427 652.654 181.216C652.654 181.192 652.654 181.173 652.644 181.149V175.199H612.889V181.134C612.88 181.163 612.875 181.187 612.875 181.216Z" fill="#F49B51"/>
<path d="M632.765 177.451C643.749 177.451 652.654 176.466 652.654 175.251C652.654 174.037 643.749 173.052 632.765 173.052C621.78 173.052 612.875 174.037 612.875 175.251C612.875 176.466 621.78 177.451 632.765 177.451Z" fill="#FCC659"/>
<path d="M640.613 190.295C648.085 189.612 648.085 188.672 648.085 188.362H647.613C647.613 188.591 646.35 189.302 640.565 189.827L640.608 190.295H640.613Z" fill="#2E4882"/>
<path d="M627.962 190.796C630.199 190.796 632.392 190.753 634.49 190.676L634.471 190.204C630.728 190.347 626.594 190.366 622.741 190.247L622.727 190.719C624.434 190.772 626.198 190.796 627.962 190.796Z" fill="#2E4882"/>
<path d="M617.786 190.485L617.82 190.018C615.698 189.879 613.848 189.698 612.322 189.483L612.255 189.951C613.795 190.17 615.655 190.352 617.786 190.49V190.485Z" fill="#2E4882"/>
<path d="M646.14 177.127C652.769 176.449 652.769 175.595 652.769 175.275H652.297C652.297 175.275 652.13 176.044 646.088 176.659L646.136 177.127H646.14Z" fill="#2E4882"/>
<path d="M632.645 177.713C634.929 177.713 637.166 177.67 639.293 177.589L639.274 177.117C637.156 177.203 634.925 177.241 632.645 177.241C628.564 177.241 624.644 177.107 621.311 176.85L621.272 177.317C624.62 177.575 628.549 177.713 632.645 177.713Z" fill="#2E4882"/>
<path d="M605.827 174.035C605.827 175.247 614.735 176.234 625.717 176.234C636.699 176.234 645.606 175.247 645.606 174.035C645.606 174.011 645.606 173.992 645.597 173.968V168.019H605.841V173.954C605.832 173.982 605.827 174.006 605.827 174.035Z" fill="#F49B51"/>
<path d="M625.717 170.275C636.701 170.275 645.606 169.29 645.606 168.075C645.606 166.861 636.701 165.876 625.717 165.876C614.732 165.876 605.827 166.861 605.827 168.075C605.827 169.29 614.732 170.275 625.717 170.275Z" fill="#FCC659"/>
<path d="M609.519 168.076C609.519 168.892 616.771 169.555 625.717 169.555C634.663 169.555 641.916 168.892 641.916 168.076C641.916 167.26 634.663 166.597 625.717 166.597C616.771 166.597 609.519 167.26 609.519 168.076Z" fill="#F49B51"/>
<path d="M602.547 43.5166H591.913V44.8334H602.547V43.5166Z" fill="#E1EAFF"/>
<path d="M586.988 43.5166H565.61V44.8334H586.988V43.5166Z" fill="#E1EAFF"/>
<path d="M602.547 49.2178H577.923V50.5346H602.547V49.2178Z" fill="#E1EAFF"/>
<path d="M574.899 49.2178H565.61V50.5346H574.899V49.2178Z" fill="#E1EAFF"/>
<path d="M597.955 55.3584H587.884V56.6752H597.955V55.3584Z" fill="#E1EAFF"/>
<path d="M583.631 55.3584H565.61V56.6752H583.631V55.3584Z" fill="#E1EAFF"/>
<path d="M582.882 111.099H569.549V111.757H582.882V111.099Z" fill="#3F5A9F"/>
<path d="M610.177 111.758H588.056V111.099H610.177C611.021 111.099 611.712 110.436 611.741 109.592L612.9 79.1904L613.558 79.2143L612.399 109.616C612.351 110.818 611.378 111.758 610.177 111.758Z" fill="#3F5A9F"/>
<path d="M594.559 95.0444C592.852 101.748 586.043 105.794 579.343 104.09C572.643 102.382 568.6 95.5692 570.302 88.8658C572.009 82.1624 578.819 78.1166 585.518 79.8198C592.218 81.5279 596.262 88.341 594.559 95.0444Z" fill="#005587"/>
<path d="M581.961 98.3412L576.22 92.4346L576.849 91.8239L581.718 96.8336L587.979 83.8467L588.766 84.2284L581.961 98.3412Z" fill="white"/>
<path d="M388.093 108.523C388.093 108.652 388.098 108.781 388.102 108.91C388.465 124.712 390.725 136.921 393.968 146.358L402.355 150.986L395.617 150.299L395.427 150.28C399.604 160.619 404.969 167.16 409.933 171.292C413.018 173.868 415.955 175.505 418.344 176.54C418.502 176.612 418.654 176.674 418.812 176.74C419.198 176.903 419.57 177.041 419.923 177.175H424.405C424.458 176.965 424.505 176.755 424.548 176.545C424.581 176.411 424.61 176.278 424.634 176.149C424.677 175.977 424.71 175.8 424.744 175.624C428.959 154.984 421.453 139.087 412.155 127.966C412.131 127.927 412.097 127.894 412.064 127.856C408.826 123.996 405.374 120.714 402.131 118.008L400.419 123.147L399.766 116.109C394.13 111.734 389.504 109.249 388.369 108.667C388.193 108.576 388.102 108.533 388.102 108.533L388.093 108.523Z" fill="#9DD2CE"/>
<path d="M387.94 108.604L388.103 108.91L398.288 127.655L398.469 127.985L401.245 133.099L401.34 133.266L410.19 149.564L410.205 149.588L424.629 176.144L424.849 176.54L425.192 177.17H425.583L425.24 176.54L424.739 175.619L410.505 149.412L410.238 148.925L388.36 108.657L388.241 108.438L387.94 108.604Z" fill="white"/>
<path d="M389.599 125.959L389.442 126.215L401.236 133.449L401.393 133.193L389.599 125.959Z" fill="white"/>
<path d="M389.325 122.14L389.168 122.396L398.412 128.069L398.569 127.812L389.325 122.14Z" fill="white"/>
<path d="M411.601 150.928L413.299 129.296L412.97 129.272L411.268 150.905L411.601 150.928Z" fill="white"/>
<path d="M426.546 181.483C426.546 181.483 416.212 187.046 400.672 178.844L405.436 176.268L397.477 177.007C391.378 173.2 384.597 167.26 377.397 158.166L379.213 157.183L376.801 157.408C375.585 155.852 374.359 154.206 373.124 152.465C373.124 152.465 377.53 151.84 383.896 152.241L387.372 156.473L386.237 152.436C399.279 153.724 418.468 159.516 426.541 181.487L426.546 181.483Z" fill="#BED4E2"/>
<path d="M373.209 152.319L373.054 152.62L427.224 180.606L427.379 180.305L373.209 152.319Z" fill="white"/>
<path d="M387.212 159.725L379.726 160.896L379.774 161.207L387.261 160.036L387.212 159.725Z" fill="white"/>
<path d="M390.92 161.572L382.226 163.597L382.297 163.903L390.991 161.879L390.92 161.572Z" fill="white"/>
<path d="M518.926 118.247H419.112C418.245 118.247 417.543 118.95 417.543 119.817V189.484C417.543 190.351 418.245 191.054 419.112 191.054H518.926C519.793 191.054 520.495 190.351 520.495 189.484V119.817C520.495 118.95 519.793 118.247 518.926 118.247Z" fill="#C3E2F4"/>
<path d="M517.371 125.805V183.496C517.371 185.939 515.392 187.919 512.951 187.919H506.28V125.117H423.222C422.192 125.117 421.353 124.283 421.353 123.247C421.353 122.217 422.187 121.377 423.222 121.377H512.951C515.392 121.377 517.371 123.357 517.371 125.8V125.805Z" fill="#005587"/>
<path d="M484.888 110.207C474.412 107.464 463.692 113.738 460.95 124.225C458.208 134.707 464.479 145.437 474.96 148.176C485.437 150.919 496.161 144.645 498.898 134.158C501.64 123.676 495.369 112.951 484.888 110.207ZM495.193 133.195C494.125 137.274 491.531 140.695 487.892 142.827C484.254 144.96 480.005 145.547 475.923 144.478C467.507 142.274 462.448 133.624 464.651 125.198C465.719 121.119 468.308 117.698 471.951 115.565C475.461 113.509 479.543 112.894 483.491 113.81C483.634 113.843 483.772 113.881 483.915 113.919C492.198 116.085 497.224 124.487 495.293 132.779C495.26 132.918 495.226 133.061 495.193 133.199V133.195Z" fill="#FCC659"/>
<path d="M495.298 132.775C495.265 132.913 495.231 133.056 495.198 133.195C494.13 137.274 491.536 140.695 487.897 142.828C484.259 144.96 480.01 145.547 475.928 144.478C467.512 142.269 462.452 133.624 464.655 125.198C465.724 121.119 468.313 117.694 471.956 115.566C475.466 113.509 479.547 112.894 483.496 113.81C483.639 113.843 483.777 113.881 483.92 113.92C492.203 116.086 497.229 124.488 495.298 132.78V132.775Z" fill="#F49B51"/>
<path d="M476.209 140.732L476.882 137.836C475.227 137.421 473.629 136.505 472.795 135.556L473.93 133.795C474.802 134.721 476.161 135.613 477.768 135.99C479.805 136.462 481.45 135.608 481.831 133.976C482.198 132.402 481.307 131.166 479.39 129.811C476.734 127.984 475.236 126.247 475.818 123.752C476.371 121.371 478.484 119.964 481.216 120.145L481.888 117.249L483.662 117.664L483.014 120.446C484.721 120.904 485.789 121.634 486.504 122.316L485.346 124.038C484.826 123.556 483.796 122.65 481.965 122.225C479.757 121.71 478.622 122.836 478.355 123.981C478.007 125.47 478.894 126.462 481.145 128.075C483.815 129.964 484.959 131.806 484.363 134.353C483.834 136.62 481.769 138.371 478.703 138.17L478.012 141.152L476.209 140.732Z" fill="#FCC659"/>
<path d="M451.175 94.9166C440.351 94.6208 431.333 103.166 431.038 114.001C430.742 124.831 439.282 133.858 450.112 134.149C460.936 134.445 469.958 125.9 470.249 115.065C470.545 104.235 462.004 95.2124 451.175 94.9166ZM466.425 114.965C466.31 119.182 464.56 123.099 461.494 126.005C458.433 128.906 454.432 130.442 450.212 130.328C441.514 130.089 434.624 122.818 434.862 114.106C434.977 109.888 436.722 105.971 439.788 103.066C442.74 100.265 446.578 98.7383 450.632 98.7383C450.779 98.7383 450.922 98.7383 451.07 98.7478C459.63 98.9768 466.425 106.024 466.425 114.531C466.425 114.674 466.425 114.817 466.425 114.96V114.965Z" fill="#FCC659"/>
<path d="M466.429 114.53C466.429 114.674 466.429 114.817 466.429 114.96C466.315 119.177 464.565 123.095 461.499 126C458.437 128.901 454.432 130.437 450.216 130.323C441.518 130.084 434.628 122.808 434.866 114.101C434.981 109.883 436.726 105.966 439.792 103.061C442.744 100.26 446.583 98.7334 450.636 98.7334C450.784 98.7334 450.927 98.7334 451.075 98.7429C459.634 98.9719 466.434 106.019 466.434 114.526L466.429 114.53Z" fill="#F49B51"/>
<path d="M449.644 126.616V123.644C447.937 123.615 446.173 123.085 445.143 122.351L445.848 120.38C446.907 121.086 448.438 121.644 450.083 121.644C452.171 121.644 453.583 120.437 453.583 118.763C453.583 117.088 452.434 116.143 450.259 115.261C447.26 114.082 445.405 112.732 445.405 110.17C445.405 107.608 447.141 105.876 449.844 105.432V102.46H451.666V105.313C453.43 105.37 454.637 105.843 455.49 106.344L454.756 108.285C454.141 107.932 452.934 107.284 451.051 107.284C448.786 107.284 447.932 108.639 447.932 109.812C447.932 111.344 449.019 112.107 451.58 113.166C454.608 114.402 456.139 115.934 456.139 118.553C456.139 120.876 454.522 123.057 451.494 123.553V126.611H449.639L449.644 126.616Z" fill="#FCC659"/>
<path d="M463.411 100.069C461.895 98.7382 460.192 97.66 458.352 96.8632L458.533 96.4434C460.416 97.2592 462.162 98.3661 463.711 99.7259L463.411 100.069Z" fill="#2E4882"/>
<path d="M461.714 131.143L461.456 130.761C466.649 127.264 469.849 121.443 470.02 115.188C470.125 111.305 469.081 107.526 467.007 104.258L467.393 104.01C469.52 107.354 470.588 111.219 470.478 115.198C470.306 121.596 467.026 127.555 461.714 131.138V131.143Z" fill="#2E4882"/>
<path d="M465.634 110.504C465.6 110.371 465.562 110.237 465.524 110.103C464.275 105.786 461.227 102.222 457.15 100.313L457.332 99.9268C461.518 101.888 464.651 105.552 465.934 109.975C465.977 110.123 466.015 110.261 466.053 110.395L465.638 110.499L465.634 110.504Z" fill="#2E4882"/>
<path d="M457.15 100.317C453.874 98.7806 450.14 98.4371 446.645 99.3484L446.535 98.9333C450.131 97.9981 453.965 98.3512 457.331 99.9257L457.15 100.312V100.317Z" fill="#2E4882"/>
<path d="M464.355 122.536L463.988 122.322C465.037 120.537 465.714 118.605 465.996 116.582L466.42 116.639C466.129 118.719 465.438 120.704 464.36 122.536H464.355Z" fill="#2E4882"/>
<path d="M512.27 125.194H419.064C418.224 125.194 417.543 125.876 417.543 126.716V195.558C417.543 196.399 418.224 197.08 419.064 197.08H512.27C513.11 197.08 513.791 196.399 513.791 195.558V126.716C513.791 125.876 513.11 125.194 512.27 125.194Z" fill="#C3E2F4"/>
<path d="M454.289 194.251H425.34C423.161 194.251 421.387 192.476 421.387 190.295V184.723H421.844V190.295C421.844 192.223 423.413 193.788 425.335 193.788H454.285V194.246L454.289 194.251Z" fill="#2E4882"/>
<path d="M509.938 139.655H509.48V131.969C509.48 130.041 507.911 128.477 505.99 128.477H468.189V128.019H505.99C508.169 128.019 509.943 129.793 509.943 131.974V139.66L509.938 139.655Z" fill="#2E4882"/>
<path d="M461.394 128.019H452.868V128.477H461.394V128.019Z" fill="#2E4882"/>
<path d="M421.844 167.781H421.387V178.631H421.844V167.781Z" fill="#2E4882"/>
<path d="M520.376 146.373V166.688C520.376 169.241 518.311 171.307 515.76 171.307H498.198C492.58 171.307 488.031 166.755 488.031 161.135C488.031 158.325 489.171 155.782 491.007 153.94C492.843 152.098 495.389 150.963 498.198 150.963H515.76C515.889 150.963 516.018 150.963 516.146 150.982C518.516 150.786 520.376 148.797 520.376 146.378V146.373Z" fill="#005587"/>
<path d="M497.267 165.882C499.888 165.882 502.012 163.757 502.012 161.135C502.012 158.513 499.888 156.388 497.267 156.388C494.647 156.388 492.522 158.513 492.522 161.135C492.522 163.757 494.647 165.882 497.267 165.882Z" fill="white"/>
<path d="M497.268 166.111V165.653C499.757 165.653 501.783 163.625 501.783 161.134C501.783 158.644 499.757 156.616 497.268 156.616V156.158C500.009 156.158 502.241 158.391 502.241 161.134C502.241 163.878 500.009 166.111 497.268 166.111Z" fill="#2E4882"/>
<path d="M492.752 161.134H492.294C492.294 159.803 492.809 158.553 493.753 157.618L494.077 157.943C493.224 158.797 492.756 159.932 492.756 161.134H492.752Z" fill="#2E4882"/>
<path d="M415.669 165.033C413.208 162.704 410.409 160.658 407.353 158.95L407.577 158.549C410.667 160.276 413.499 162.342 415.988 164.699L415.674 165.033H415.669Z" fill="#2E4882"/>
<path d="M402.336 156.54C400.667 155.858 398.907 155.247 397.104 154.722L397.233 154.283C399.05 154.808 400.829 155.428 402.512 156.115L402.34 156.54H402.336Z" fill="#2E4882"/>
<path d="M424.748 158.225C414.267 160.949 407.977 171.665 410.705 182.157C413.428 192.643 424.138 198.941 434.624 196.207C445.105 193.483 451.399 182.767 448.667 172.276C445.944 161.789 435.234 155.496 424.748 158.225ZM444.967 173.244C446.025 177.328 445.434 181.579 443.298 185.22C441.166 188.855 437.742 191.446 433.661 192.51C425.239 194.7 416.604 189.628 414.41 181.198C413.351 177.114 413.938 172.863 416.074 169.227C418.134 165.715 421.396 163.182 425.287 162.056C425.43 162.013 425.568 161.98 425.711 161.942C433.999 159.785 442.482 164.661 444.848 172.834C444.886 172.972 444.929 173.111 444.962 173.249L444.967 173.244Z" fill="#FCC659"/>
<path d="M444.848 172.828C444.886 172.967 444.929 173.105 444.962 173.244C446.021 177.328 445.43 181.579 443.293 185.219C441.162 188.855 437.738 191.445 433.656 192.509C425.235 194.699 416.594 189.627 414.406 181.192C413.347 177.108 413.934 172.857 416.07 169.222C418.13 165.71 421.392 163.177 425.283 162.051C425.426 162.008 425.564 161.974 425.707 161.936C433.995 159.78 442.478 164.656 444.843 172.828H444.848Z" fill="#F49B51"/>
<path d="M432.082 189.104L431.257 186.25C429.612 186.694 427.767 186.68 426.575 186.255L426.703 184.165C427.915 184.547 429.541 184.662 431.124 184.204C433.131 183.622 434.152 182.071 433.684 180.458C433.236 178.903 431.853 178.259 429.522 178.02C426.312 177.724 424.157 176.937 423.446 174.48C422.769 172.133 423.919 169.871 426.398 168.693L425.573 165.84L427.323 165.334L428.115 168.077C429.827 167.643 431.114 167.762 432.073 168.006L431.906 170.076C431.214 169.909 429.874 169.623 428.067 170.148C425.893 170.778 425.449 172.314 425.773 173.445C426.198 174.914 427.457 175.348 430.208 175.654C433.46 175.997 435.353 177.042 436.083 179.561C436.727 181.794 435.778 184.337 433.007 185.659L433.856 188.598L432.077 189.113L432.082 189.104Z" fill="#FCC659"/>
<path d="M443.421 191.532L443.126 191.222C448.18 186.355 450.226 179.117 448.457 172.333C447.842 169.957 446.798 167.753 445.367 165.782L445.71 165.529C447.174 167.543 448.238 169.795 448.872 172.223C450.674 179.156 448.586 186.556 443.421 191.527V191.532ZM440.842 161.34C438.992 160.038 436.946 159.079 434.767 158.482L434.881 158.067C437.108 158.673 439.197 159.656 441.09 160.987L440.842 161.336V161.34Z" fill="#2E4882"/>
<path d="M444.757 173.296C444.723 173.158 444.68 173.024 444.642 172.886C443.398 168.582 440.346 165.018 436.273 163.105L436.455 162.719C440.641 164.68 443.774 168.344 445.052 172.767C445.09 172.905 445.133 173.048 445.171 173.187L444.757 173.296Z" fill="#2E4882"/>
<path d="M436.274 163.11C432.998 161.574 429.264 161.23 425.769 162.141L425.659 161.726C429.255 160.791 433.089 161.144 436.455 162.719L436.274 163.105V163.11Z" fill="#2E4882"/>
<path d="M414.201 181.245C413.123 177.104 413.724 172.795 415.889 169.107L416.256 169.322C414.148 172.91 413.566 177.104 414.611 181.131L414.196 181.24L414.201 181.245Z" fill="#2E4882"/>
<path d="M443.478 185.324L443.111 185.11C444.16 183.325 444.838 181.393 445.119 179.365L445.543 179.422C445.252 181.503 444.561 183.487 443.483 185.32L443.478 185.324Z" fill="#2E4882"/>
</g>
<defs>
<clipPath id="clip0_1894_65396">
<rect width="309" height="192" fill="white" transform="translate(373)"/>
</clipPath>
</defs>
</svg>
