<svg width="309" height="192" viewBox="0 0 309 192" fill="none" xmlns="http://www.w3.org/2000/svg">
<g clip-path="url(#clip0_1894_65235)">
<path d="M229.652 177.68C255.355 179.493 287.49 169.297 301.666 146.935C307.536 137.675 311.432 125.795 307.346 115.551C304.251 107.793 291.161 99.0242 288.334 91.1567C285.468 83.1794 285.873 74.1907 287.347 65.8079C291.572 41.7044 268.072 4.07959 218.437 0.0623342C180.804 -2.98162 163.78 26.2842 131.75 30.2824C99.4288 34.3139 61.5286 10.1246 38.4061 30.2824C9.69484 55.3163 23.1659 80.374 26.6612 92.0966C31.1484 107.159 9.20845 124.349 13.7338 146.52C23.8526 196.101 97.3927 162.666 118.946 160.571C140.839 158.443 162.559 164.679 184.013 169.684C205.466 174.689 228.184 178.453 249.156 171.583L229.657 177.68H229.652Z" fill="#EEF8F8"/>
<path d="M281.39 68.1162C281.39 68.2689 281.4 68.4168 281.404 68.5695C281.953 87.2196 280.036 101.762 276.803 113.088L267.194 119.067L275.096 117.845L275.32 117.812C271.033 130.264 265.11 138.308 259.507 143.48C256.026 146.706 252.669 148.819 249.913 150.188C249.732 150.279 249.555 150.37 249.374 150.451C248.931 150.666 248.502 150.856 248.091 151.028L242.808 151.305C242.736 151.057 242.665 150.818 242.603 150.57C242.555 150.417 242.517 150.26 242.479 150.107C242.422 149.907 242.369 149.697 242.317 149.497C236.07 125.422 243.943 106.213 254.224 92.5251C254.252 92.4774 254.286 92.4344 254.324 92.3915C257.9 87.6395 261.772 83.5554 265.43 80.168L267.766 86.1175L268.1 77.7777C274.476 72.2671 279.778 69.0561 281.08 68.2975C281.28 68.1782 281.39 68.121 281.39 68.121V68.1162Z" fill="#5AB2AC" fill-opacity="0.55"/>
<path d="M281.581 68.2019L281.405 68.5693L270.552 91.3035L270.356 91.7043L267.4 97.9019L267.3 98.1119L257.868 117.874L257.853 117.898L242.479 150.102L242.251 150.584L241.883 151.352L241.421 151.376L241.783 150.608L242.317 149.492L257.491 117.711L257.772 117.125L281.085 68.2926L281.214 68.0254L281.581 68.2019Z" fill="white"/>
<path d="M280.696 88.7783L267.241 98.041L267.441 98.3319L280.896 89.0692L280.696 88.7783Z" fill="white"/>
<path d="M280.774 84.2325L270.224 91.4902L270.424 91.7812L280.974 84.5235L280.774 84.2325Z" fill="white"/>
<path d="M254.563 92.3364L254.213 92.3818L257.524 117.927L257.874 117.882L254.563 92.3364Z" fill="white"/>
<path d="M240.687 155.432C240.687 155.432 253.213 161.353 271.029 150.723L265.249 147.979L274.681 148.356C281.634 143.49 289.268 136.071 297.193 124.902L294.99 123.857L297.852 123.971C299.187 122.063 300.531 120.045 301.881 117.912C301.881 117.912 296.65 117.449 289.168 118.313L285.329 123.513L286.417 118.68C271.119 121.004 248.85 129.019 240.687 155.422V155.432Z" fill="#BED4E2"/>
<path d="M301.784 117.709L239.639 154.058L239.841 154.404L301.986 118.055L301.784 117.709Z" fill="white"/>
<path d="M285.751 127.357L285.713 127.728L294.611 128.646L294.65 128.276L285.751 127.357Z" fill="white"/>
<path d="M281.458 129.735L281.393 130.102L291.768 131.951L291.833 131.584L281.458 129.735Z" fill="white"/>
<path d="M255.33 132.578L255.016 132.225C260.232 127.587 266.584 123.971 273.889 121.471L274.042 121.914C266.794 124.391 260.495 127.974 255.326 132.573L255.33 132.578Z" fill="#2E4882"/>
<path d="M188.08 193.667H175.405C171.28 193.667 167.89 190.456 167.718 186.387L160.57 61.5942C160.389 57.2811 163.884 53.6885 168.257 53.6885H182.873L188.08 193.667Z" fill="#005587"/>
<path d="M250.676 61.5942L246.933 186.387C246.761 190.456 243.371 193.667 239.246 193.667H183.206C179.082 193.667 174.223 190.456 174.051 186.387L170.312 61.5942C170.131 57.2811 173.627 53.6885 177.999 53.6885H242.989C247.362 53.6885 250.857 57.2811 250.676 61.5942Z" fill="#E6EEF3"/>
<path d="M185.782 62.3154H182.778C182.363 62.3154 181.991 62.4824 181.719 62.7544C181.442 63.0311 181.28 63.4032 181.28 63.8183C181.28 64.6485 181.953 65.3164 182.778 65.3164H237.787C238.202 65.3164 238.574 65.1495 238.846 64.8775C239.122 64.6103 239.285 64.2334 239.285 63.8183C239.285 62.9881 238.612 62.3154 237.787 62.3154H185.777H185.782Z" fill="#3F5A9F"/>
<path d="M237.177 111.429H183.812C182.792 111.429 181.957 110.623 181.919 109.606L180.593 74.8728C180.55 73.7993 181.414 72.9023 182.486 72.9023H238.497C239.575 72.9023 240.433 73.7945 240.391 74.8728L239.065 109.606C239.027 110.627 238.187 111.429 237.172 111.429H237.177Z" fill="white"/>
<path d="M198.761 125.875H187.222C186.679 125.875 186.239 126.315 186.239 126.858V133.9C186.239 134.443 186.679 134.883 187.222 134.883H198.761C199.304 134.883 199.744 134.443 199.744 133.9V126.858C199.744 126.315 199.304 125.875 198.761 125.875Z" fill="#005587"/>
<path d="M198.761 140.574H187.222C186.679 140.574 186.239 141.014 186.239 141.557V148.599C186.239 149.142 186.679 149.582 187.222 149.582H198.761C199.304 149.582 199.744 149.142 199.744 148.599V141.557C199.744 141.014 199.304 140.574 198.761 140.574Z" fill="#005587"/>
<path d="M198.761 155.274H187.222C186.679 155.274 186.239 155.714 186.239 156.257V163.299C186.239 163.842 186.679 164.282 187.222 164.282H198.761C199.304 164.282 199.744 163.842 199.744 163.299V156.257C199.744 155.714 199.304 155.274 198.761 155.274Z" fill="#005587"/>
<path d="M198.761 169.974H187.222C186.679 169.974 186.239 170.414 186.239 170.956V177.999C186.239 178.541 186.679 178.981 187.222 178.981H198.761C199.304 178.981 199.744 178.541 199.744 177.999V170.956C199.744 170.414 199.304 169.974 198.761 169.974Z" fill="#005587"/>
<path d="M215.899 125.875H204.359C203.817 125.875 203.377 126.315 203.377 126.858V133.9C203.377 134.443 203.817 134.883 204.359 134.883H215.899C216.442 134.883 216.881 134.443 216.881 133.9V126.858C216.881 126.315 216.442 125.875 215.899 125.875Z" fill="#005587"/>
<path d="M215.899 140.574H204.359C203.817 140.574 203.377 141.014 203.377 141.557V148.599C203.377 149.142 203.817 149.582 204.359 149.582H215.899C216.442 149.582 216.881 149.142 216.881 148.599V141.557C216.881 141.014 216.442 140.574 215.899 140.574Z" fill="#005587"/>
<path d="M215.899 155.274H204.359C203.817 155.274 203.377 155.714 203.377 156.257V163.299C203.377 163.842 203.817 164.282 204.359 164.282H215.899C216.442 164.282 216.881 163.842 216.881 163.299V156.257C216.881 155.714 216.442 155.274 215.899 155.274Z" fill="#005587"/>
<path d="M215.899 169.974H204.359C203.817 169.974 203.377 170.414 203.377 170.956V177.999C203.377 178.541 203.817 178.981 204.359 178.981H215.899C216.442 178.981 216.881 178.541 216.881 177.999V170.956C216.881 170.414 216.442 169.974 215.899 169.974Z" fill="#005587"/>
<path d="M233.038 125.875H221.498C220.955 125.875 220.516 126.315 220.516 126.858V133.9C220.516 134.443 220.955 134.883 221.498 134.883H233.038C233.58 134.883 234.02 134.443 234.02 133.9V126.858C234.02 126.315 233.58 125.875 233.038 125.875Z" fill="#005587"/>
<path d="M233.038 140.574H221.498C220.955 140.574 220.516 141.014 220.516 141.557V148.599C220.516 149.142 220.955 149.582 221.498 149.582H233.038C233.58 149.582 234.02 149.142 234.02 148.599V141.557C234.02 141.014 233.58 140.574 233.038 140.574Z" fill="#005587"/>
<path d="M233.038 155.274H221.498C220.955 155.274 220.516 155.714 220.516 156.257V163.299C220.516 163.842 220.955 164.282 221.498 164.282H233.038C233.58 164.282 234.02 163.842 234.02 163.299V156.257C234.02 155.714 233.58 155.274 233.038 155.274Z" fill="#005587"/>
<path d="M233.038 169.974H221.498C220.955 169.974 220.516 170.414 220.516 170.956V177.999C220.516 178.541 220.955 178.981 221.498 178.981H233.038C233.58 178.981 234.02 178.541 234.02 177.999V170.956C234.02 170.414 233.58 169.974 233.038 169.974Z" fill="#005587"/>
<path d="M201.208 125.875H189.668C189.125 125.875 188.686 126.315 188.686 126.858V133.9C188.686 134.443 189.125 134.883 189.668 134.883H201.208C201.75 134.883 202.19 134.443 202.19 133.9V126.858C202.19 126.315 201.75 125.875 201.208 125.875Z" fill="#1773B0"/>
<path d="M201.208 140.574H189.668C189.125 140.574 188.686 141.014 188.686 141.557V148.599C188.686 149.142 189.125 149.582 189.668 149.582H201.208C201.75 149.582 202.19 149.142 202.19 148.599V141.557C202.19 141.014 201.75 140.574 201.208 140.574Z" fill="#1773B0"/>
<path d="M201.208 155.274H189.668C189.125 155.274 188.686 155.714 188.686 156.257V163.299C188.686 163.842 189.125 164.282 189.668 164.282H201.208C201.75 164.282 202.19 163.842 202.19 163.299V156.257C202.19 155.714 201.75 155.274 201.208 155.274Z" fill="#1773B0"/>
<path d="M201.208 169.974H189.668C189.125 169.974 188.686 170.414 188.686 170.956V177.999C188.686 178.541 189.125 178.981 189.668 178.981H201.208C201.75 178.981 202.19 178.541 202.19 177.999V170.956C202.19 170.414 201.75 169.974 201.208 169.974Z" fill="#005587"/>
<path d="M218.345 125.875H206.806C206.263 125.875 205.823 126.315 205.823 126.858V133.9C205.823 134.443 206.263 134.883 206.806 134.883H218.345C218.888 134.883 219.328 134.443 219.328 133.9V126.858C219.328 126.315 218.888 125.875 218.345 125.875Z" fill="#1773B0"/>
<path d="M218.345 140.574H206.806C206.263 140.574 205.823 141.014 205.823 141.557V148.599C205.823 149.142 206.263 149.582 206.806 149.582H218.345C218.888 149.582 219.328 149.142 219.328 148.599V141.557C219.328 141.014 218.888 140.574 218.345 140.574Z" fill="#1773B0"/>
<path d="M218.345 155.274H206.806C206.263 155.274 205.823 155.714 205.823 156.257V163.299C205.823 163.842 206.263 164.282 206.806 164.282H218.345C218.888 164.282 219.328 163.842 219.328 163.299V156.257C219.328 155.714 218.888 155.274 218.345 155.274Z" fill="#1773B0"/>
<path d="M218.345 169.974H206.806C206.263 169.974 205.823 170.414 205.823 170.956V177.999C205.823 178.541 206.263 178.981 206.806 178.981H218.345C218.888 178.981 219.328 178.541 219.328 177.999V170.956C219.328 170.414 218.888 169.974 218.345 169.974Z" fill="#1773B0"/>
<path d="M235.489 125.875H223.949C223.407 125.875 222.967 126.315 222.967 126.858V133.9C222.967 134.443 223.407 134.883 223.949 134.883H235.489C236.031 134.883 236.471 134.443 236.471 133.9V126.858C236.471 126.315 236.031 125.875 235.489 125.875Z" fill="#1773B0"/>
<path d="M235.489 140.574H223.949C223.407 140.574 222.967 141.014 222.967 141.557V148.599C222.967 149.142 223.407 149.582 223.949 149.582H235.489C236.031 149.582 236.471 149.142 236.471 148.599V141.557C236.471 141.014 236.031 140.574 235.489 140.574Z" fill="#1773B0"/>
<path d="M235.489 155.274H223.949C223.407 155.274 222.967 155.714 222.967 156.257V163.299C222.967 163.842 223.407 164.282 223.949 164.282H235.489C236.031 164.282 236.471 163.842 236.471 163.299V156.257C236.471 155.714 236.031 155.274 235.489 155.274Z" fill="#1773B0"/>
<path d="M235.489 169.974H223.949C223.407 169.974 222.967 170.414 222.967 170.956V177.999C222.967 178.541 223.407 178.981 223.949 178.981H235.489C236.031 178.981 236.471 178.541 236.471 177.999V170.956C236.471 170.414 236.031 169.974 235.489 169.974Z" fill="#005587"/>
<path d="M199.562 135.131H191.308C189.725 135.131 188.438 133.843 188.438 132.259V128.504C188.438 126.92 189.725 125.632 191.308 125.632H199.562C201.146 125.632 202.433 126.92 202.433 128.504V132.259C202.433 133.843 201.146 135.131 199.562 135.131ZM191.313 126.123C190.002 126.123 188.933 127.192 188.933 128.504V132.259C188.933 133.571 190.002 134.64 191.313 134.64H199.567C200.879 134.64 201.947 133.571 201.947 132.259V128.504C201.947 127.192 200.879 126.123 199.567 126.123H191.313Z" fill="white"/>
<path d="M199.562 149.826H191.308C189.725 149.826 188.438 148.538 188.438 146.954V143.199C188.438 141.615 189.725 140.327 191.308 140.327H199.562C201.146 140.327 202.433 141.615 202.433 143.199V146.954C202.433 148.538 201.146 149.826 199.562 149.826ZM191.313 140.823C190.002 140.823 188.933 141.892 188.933 143.204V146.959C188.933 148.271 190.002 149.34 191.313 149.34H199.567C200.879 149.34 201.947 148.271 201.947 146.959V143.204C201.947 141.892 200.879 140.823 199.567 140.823H191.313Z" fill="white"/>
<path d="M199.562 164.526H191.308C189.725 164.526 188.438 163.237 188.438 161.653V157.899C188.438 156.315 189.725 155.026 191.308 155.026H199.562C201.146 155.026 202.433 156.315 202.433 157.899V161.653C202.433 163.237 201.146 164.526 199.562 164.526ZM191.313 155.518C190.002 155.518 188.933 156.587 188.933 157.899V161.653C188.933 162.965 190.002 164.034 191.313 164.034H199.567C200.879 164.034 201.947 162.965 201.947 161.653V157.899C201.947 156.587 200.879 155.518 199.567 155.518H191.313Z" fill="white"/>
<path d="M199.562 179.226H191.308C189.725 179.226 188.438 177.938 188.438 176.354V172.599C188.438 171.015 189.725 169.727 191.308 169.727H199.562C201.146 169.727 202.433 171.015 202.433 172.599V176.354C202.433 177.938 201.146 179.226 199.562 179.226ZM191.313 170.218C190.002 170.218 188.933 171.287 188.933 172.599V176.354C188.933 177.666 190.002 178.734 191.313 178.734H199.567C200.879 178.734 201.947 177.666 201.947 176.354V172.599C201.947 171.287 200.879 170.218 199.567 170.218H191.313Z" fill="white"/>
<path d="M216.7 135.131H208.446C206.863 135.131 205.575 133.843 205.575 132.259V128.504C205.575 126.92 206.863 125.632 208.446 125.632H216.7C218.283 125.632 219.571 126.92 219.571 128.504V132.259C219.571 133.843 218.283 135.131 216.7 135.131ZM208.451 126.123C207.139 126.123 206.071 127.192 206.071 128.504V132.259C206.071 133.571 207.139 134.64 208.451 134.64H216.705C218.016 134.64 219.084 133.571 219.084 132.259V128.504C219.084 127.192 218.016 126.123 216.705 126.123H208.451Z" fill="white"/>
<path d="M216.7 149.826H208.446C206.863 149.826 205.575 148.538 205.575 146.954V143.199C205.575 141.615 206.863 140.327 208.446 140.327H216.7C218.283 140.327 219.571 141.615 219.571 143.199V146.954C219.571 148.538 218.283 149.826 216.7 149.826ZM208.451 140.823C207.139 140.823 206.071 141.892 206.071 143.204V146.959C206.071 148.271 207.139 149.34 208.451 149.34H216.705C218.016 149.34 219.084 148.271 219.084 146.959V143.204C219.084 141.892 218.016 140.823 216.705 140.823H208.451Z" fill="white"/>
<path d="M216.7 164.526H208.446C206.863 164.526 205.575 163.237 205.575 161.653V157.899C205.575 156.315 206.863 155.026 208.446 155.026H216.7C218.283 155.026 219.571 156.315 219.571 157.899V161.653C219.571 163.237 218.283 164.526 216.7 164.526ZM208.451 155.518C207.139 155.518 206.071 156.587 206.071 157.899V161.653C206.071 162.965 207.139 164.034 208.451 164.034H216.705C218.016 164.034 219.084 162.965 219.084 161.653V157.899C219.084 156.587 218.016 155.518 216.705 155.518H208.451Z" fill="white"/>
<path d="M216.7 179.226H208.446C206.863 179.226 205.575 177.938 205.575 176.354V172.599C205.575 171.015 206.863 169.727 208.446 169.727H216.7C218.283 169.727 219.571 171.015 219.571 172.599V176.354C219.571 177.938 218.283 179.226 216.7 179.226ZM208.451 170.218C207.139 170.218 206.071 171.287 206.071 172.599V176.354C206.071 177.666 207.139 178.734 208.451 178.734H216.705C218.016 178.734 219.084 177.666 219.084 176.354V172.599C219.084 171.287 218.016 170.218 216.705 170.218H208.451Z" fill="white"/>
<path d="M233.844 135.131H225.589C224.006 135.131 222.719 133.843 222.719 132.259V128.504C222.719 126.92 224.006 125.632 225.589 125.632H233.844C235.427 125.632 236.714 126.92 236.714 128.504V132.259C236.714 133.843 235.427 135.131 233.844 135.131ZM225.589 126.123C224.278 126.123 223.21 127.192 223.21 128.504V132.259C223.21 133.571 224.278 134.64 225.589 134.64H233.844C235.155 134.64 236.223 133.571 236.223 132.259V128.504C236.223 127.192 235.155 126.123 233.844 126.123H225.589Z" fill="white"/>
<path d="M233.844 149.826H225.589C224.006 149.826 222.719 148.538 222.719 146.954V143.199C222.719 141.615 224.006 140.327 225.589 140.327H233.844C235.427 140.327 236.714 141.615 236.714 143.199V146.954C236.714 148.538 235.427 149.826 233.844 149.826ZM225.589 140.823C224.278 140.823 223.21 141.892 223.21 143.204V146.959C223.21 148.271 224.278 149.34 225.589 149.34H233.844C235.155 149.34 236.223 148.271 236.223 146.959V143.204C236.223 141.892 235.155 140.823 233.844 140.823H225.589Z" fill="white"/>
<path d="M233.844 164.526H225.589C224.006 164.526 222.719 163.237 222.719 161.653V157.899C222.719 156.315 224.006 155.026 225.589 155.026H233.844C235.427 155.026 236.714 156.315 236.714 157.899V161.653C236.714 163.237 235.427 164.526 233.844 164.526ZM225.589 155.518C224.278 155.518 223.21 156.587 223.21 157.899V161.653C223.21 162.965 224.278 164.034 225.589 164.034H233.844C235.155 164.034 236.223 162.965 236.223 161.653V157.899C236.223 156.587 235.155 155.518 233.844 155.518H225.589Z" fill="white"/>
<path d="M233.844 179.226H225.589C224.006 179.226 222.719 177.938 222.719 176.354V172.599C222.719 171.015 224.006 169.727 225.589 169.727H233.844C235.427 169.727 236.714 171.015 236.714 172.599V176.354C236.714 177.938 235.427 179.226 233.844 179.226ZM225.589 170.218C224.278 170.218 223.21 171.287 223.21 172.599V176.354C223.21 177.666 224.278 178.734 225.589 178.734H233.844C235.155 178.734 236.223 177.666 236.223 176.354V172.599C236.223 171.287 235.155 170.218 233.844 170.218H225.589Z" fill="white"/>
<path d="M232.441 193.997H183.211C178.971 193.997 173.903 190.681 173.726 186.401L169.988 61.6087C169.897 59.4569 170.674 57.4054 172.176 55.8404C173.707 54.2421 175.777 53.3643 178.003 53.3643H242.994C245.221 53.3643 247.29 54.2421 248.821 55.8404C250.323 57.4054 251.1 59.4569 251.009 61.6135L250.804 68.4218L250.146 68.4027L250.351 61.5896C250.432 59.6096 249.722 57.7298 248.344 56.2937C246.937 54.829 245.039 54.0179 242.989 54.0179H177.999C175.953 54.0179 174.05 54.8242 172.644 56.2937C171.266 57.7298 170.555 59.6096 170.636 61.5848L174.375 186.377C174.537 190.294 179.253 193.338 183.201 193.338H232.431V193.997H232.441Z" fill="#3F5A9F"/>
<path d="M249.566 87.5653L247.401 160.125L248.059 160.145L250.224 87.5849L249.566 87.5653Z" fill="#3F5A9F"/>
<path d="M234.774 38.3117V65.316H185.849V38.3117C185.729 36.451 184.881 34.7859 183.593 33.5835C182.301 32.3812 180.56 31.6465 178.677 31.6465H227.602C229.49 31.6465 231.226 32.3812 232.518 33.5835C233.81 34.7859 234.659 36.451 234.774 38.3117Z" fill="white"/>
<path d="M185.848 38.3117H171.495C171.614 36.451 172.463 34.7859 173.755 33.5835C175.048 32.3812 176.788 31.6465 178.672 31.6465C180.555 31.6465 182.296 32.3812 183.588 33.5835C184.876 34.7859 185.729 36.451 185.844 38.3117H185.848Z" fill="#2E4882"/>
<path d="M234.993 65.5354H185.629V38.3115C185.519 36.5844 184.742 34.9575 183.44 33.7456C182.139 32.5338 180.446 31.8706 178.672 31.8706V31.4316H227.597C229.48 31.4316 231.278 32.1378 232.661 33.426C234.044 34.7094 234.869 36.4413 234.988 38.302V38.3163V65.5401L234.993 65.5354ZM186.068 65.0964H234.554V38.3163C234.44 36.5701 233.667 34.9479 232.365 33.7408C231.064 32.529 229.371 31.8658 227.597 31.8658H181.19C182.124 32.2046 182.992 32.7294 183.736 33.4212C185.119 34.7094 185.944 36.4413 186.063 38.2972V65.0964H186.068Z" fill="#2E4882"/>
<path d="M237.792 65.5405H182.782C181.833 65.5405 181.065 64.7676 181.065 63.8229C181.065 63.3649 181.247 62.9308 181.571 62.6063C181.89 62.2819 182.32 62.1006 182.782 62.1006H185.781V62.5395H182.782C182.439 62.5395 182.119 62.6731 181.881 62.9164C181.638 63.1598 181.504 63.4842 181.504 63.8277C181.504 64.5338 182.076 65.1064 182.782 65.1064H237.792C238.135 65.1064 238.455 64.9728 238.693 64.7295C238.936 64.4909 239.07 64.1665 239.07 63.8229C239.07 63.1168 238.497 62.5395 237.792 62.5395H234.788V62.1006H237.792C238.741 62.1006 239.508 62.8735 239.508 63.8229C239.508 64.2857 239.327 64.7151 239.003 65.0396C238.683 65.364 238.254 65.5453 237.792 65.5453V65.5405Z" fill="#2E4882"/>
<path d="M239.875 195.567C239.875 196.779 248.783 197.767 259.765 197.767C270.746 197.767 279.654 196.779 279.654 195.567C279.654 195.543 279.654 195.524 279.644 195.5V189.551H239.889V195.486C239.88 195.515 239.875 195.538 239.875 195.567Z" fill="#F49B51"/>
<path d="M259.765 191.807C270.749 191.807 279.654 190.822 279.654 189.608C279.654 188.393 270.749 187.408 259.765 187.408C248.78 187.408 239.875 188.393 239.875 189.608C239.875 190.822 248.78 191.807 259.765 191.807Z" fill="#FCC659"/>
<path d="M235.178 188.391C235.178 189.603 244.085 190.591 255.067 190.591C266.049 190.591 274.957 189.603 274.957 188.391C274.957 188.367 274.957 188.348 274.947 188.325V182.375H235.192V188.31C235.182 188.339 235.178 188.363 235.178 188.391Z" fill="#F49B51"/>
<path d="M255.067 184.631C266.052 184.631 274.957 183.647 274.957 182.432C274.957 181.217 266.052 180.232 255.067 180.232C244.083 180.232 235.178 181.217 235.178 182.432C235.178 183.647 244.083 184.631 255.067 184.631Z" fill="#FCC659"/>
<path d="M239.875 181.216C239.875 182.427 248.783 183.415 259.765 183.415C270.746 183.415 279.654 182.427 279.654 181.216C279.654 181.192 279.654 181.173 279.644 181.149V175.199H239.889V181.134C239.88 181.163 239.875 181.187 239.875 181.216Z" fill="#F49B51"/>
<path d="M259.765 177.451C270.749 177.451 279.654 176.466 279.654 175.251C279.654 174.037 270.749 173.052 259.765 173.052C248.78 173.052 239.875 174.037 239.875 175.251C239.875 176.466 248.78 177.451 259.765 177.451Z" fill="#FCC659"/>
<path d="M267.613 190.295C275.085 189.612 275.085 188.672 275.085 188.362H274.613C274.613 188.591 273.35 189.302 267.565 189.827L267.608 190.295H267.613Z" fill="#2E4882"/>
<path d="M254.962 190.796C257.199 190.796 259.392 190.753 261.49 190.676L261.471 190.204C257.728 190.347 253.594 190.366 249.741 190.247L249.727 190.719C251.434 190.772 253.198 190.796 254.962 190.796Z" fill="#2E4882"/>
<path d="M244.786 190.485L244.82 190.018C242.698 189.879 240.848 189.698 239.322 189.483L239.255 189.951C240.795 190.17 242.655 190.352 244.786 190.49V190.485Z" fill="#2E4882"/>
<path d="M273.14 177.127C279.769 176.449 279.769 175.595 279.769 175.275H279.297C279.297 175.275 279.13 176.044 273.088 176.659L273.136 177.127H273.14Z" fill="#2E4882"/>
<path d="M259.645 177.713C261.929 177.713 264.166 177.67 266.293 177.589L266.274 177.117C264.156 177.203 261.925 177.241 259.645 177.241C255.564 177.241 251.644 177.107 248.311 176.85L248.272 177.317C251.62 177.575 255.549 177.713 259.645 177.713Z" fill="#2E4882"/>
<path d="M232.827 174.035C232.827 175.247 241.735 176.234 252.717 176.234C263.699 176.234 272.606 175.247 272.606 174.035C272.606 174.011 272.606 173.992 272.597 173.968V168.019H232.841V173.954C232.832 173.982 232.827 174.006 232.827 174.035Z" fill="#F49B51"/>
<path d="M252.717 170.275C263.701 170.275 272.606 169.29 272.606 168.075C272.606 166.861 263.701 165.876 252.717 165.876C241.732 165.876 232.827 166.861 232.827 168.075C232.827 169.29 241.732 170.275 252.717 170.275Z" fill="#FCC659"/>
<path d="M236.519 168.076C236.519 168.892 243.771 169.555 252.717 169.555C261.663 169.555 268.916 168.892 268.916 168.076C268.916 167.26 261.663 166.597 252.717 166.597C243.771 166.597 236.519 167.26 236.519 168.076Z" fill="#F49B51"/>
<path d="M229.547 43.5166H218.913V44.8334H229.547V43.5166Z" fill="#E1EAFF"/>
<path d="M213.988 43.5166H192.61V44.8334H213.988V43.5166Z" fill="#E1EAFF"/>
<path d="M229.547 49.2178H204.923V50.5346H229.547V49.2178Z" fill="#E1EAFF"/>
<path d="M201.899 49.2178H192.61V50.5346H201.899V49.2178Z" fill="#E1EAFF"/>
<path d="M224.955 55.3584H214.884V56.6752H224.955V55.3584Z" fill="#E1EAFF"/>
<path d="M210.631 55.3584H192.61V56.6752H210.631V55.3584Z" fill="#E1EAFF"/>
<path d="M209.882 111.099H196.549V111.757H209.882V111.099Z" fill="#3F5A9F"/>
<path d="M237.177 111.758H215.056V111.099H237.177C238.021 111.099 238.712 110.436 238.741 109.592L239.9 79.1904L240.558 79.2143L239.399 109.616C239.351 110.818 238.378 111.758 237.177 111.758Z" fill="#3F5A9F"/>
<path d="M221.559 95.0444C219.852 101.748 213.043 105.794 206.343 104.09C199.643 102.382 195.6 95.5692 197.302 88.8658C199.009 82.1624 205.819 78.1166 212.518 79.8198C219.218 81.5279 223.262 88.341 221.559 95.0444Z" fill="#005587"/>
<path d="M208.961 98.3412L203.22 92.4346L203.849 91.8239L208.718 96.8336L214.979 83.8467L215.766 84.2284L208.961 98.3412Z" fill="white"/>
<path d="M15.0928 108.523C15.0928 108.652 15.0975 108.781 15.1023 108.91C15.4647 124.712 17.725 136.921 20.9676 146.358L29.3554 150.986L22.6175 150.299L22.4268 150.28C26.604 160.619 31.9686 167.16 36.9326 171.292C40.0178 173.868 42.9552 175.505 45.3443 176.54C45.5016 176.612 45.6542 176.674 45.8116 176.74C46.1978 176.903 46.5698 177.041 46.9226 177.175H51.405C51.4575 176.965 51.5052 176.755 51.5481 176.545C51.5815 176.411 51.6101 176.278 51.6339 176.149C51.6768 175.977 51.7102 175.8 51.7436 175.624C55.959 154.984 48.4533 139.087 39.1547 127.966C39.1309 127.927 39.0975 127.894 39.0641 127.856C35.8263 123.996 32.3739 120.714 29.1313 118.008L27.4194 123.147L26.7661 116.109C21.1297 111.734 16.5043 109.249 15.3693 108.667C15.1929 108.576 15.1023 108.533 15.1023 108.533L15.0928 108.523Z" fill="#9DD2CE"/>
<path d="M14.9404 108.604L15.1026 108.91L25.2881 127.655L25.4693 127.985L28.2446 133.099L28.34 133.266L37.1903 149.564L37.2046 149.588L51.6294 176.144L51.8488 176.54L52.1921 177.17H52.5831L52.2398 176.54L51.7391 175.619L37.5051 149.412L37.238 148.925L15.3601 108.657L15.2408 108.438L14.9404 108.604Z" fill="white"/>
<path d="M16.5994 125.959L16.4424 126.215L28.2361 133.449L28.3931 133.193L16.5994 125.959Z" fill="white"/>
<path d="M16.325 122.14L16.168 122.396L25.4117 128.069L25.5687 127.812L16.325 122.14Z" fill="white"/>
<path d="M38.6014 150.928L40.299 129.296L39.9699 129.272L38.2676 150.905L38.6014 150.928Z" fill="white"/>
<path d="M53.5457 181.483C53.5457 181.483 43.2124 187.046 27.6718 178.844L32.4355 176.268L24.4769 177.007C18.3779 173.2 11.5971 167.26 4.39662 158.166L6.21342 157.183L3.80055 157.408C2.58458 155.852 1.35907 154.206 0.124023 152.465C0.124023 152.465 4.53014 151.84 10.8961 152.241L14.3724 156.473L13.2374 152.436C26.2793 153.724 45.4679 159.516 53.541 181.487L53.5457 181.483Z" fill="#BED4E2"/>
<path d="M0.209044 152.319L0.0537109 152.62L54.2238 180.606L54.3792 180.305L0.209044 152.319Z" fill="white"/>
<path d="M14.2119 159.725L6.72559 160.896L6.77417 161.207L14.2605 160.036L14.2119 159.725Z" fill="white"/>
<path d="M17.9199 161.572L9.22559 163.597L9.29692 163.903L17.9913 161.879L17.9199 161.572Z" fill="white"/>
<path d="M145.926 118.247H46.1118C45.2454 118.247 44.543 118.95 44.543 119.817V189.484C44.543 190.351 45.2454 191.054 46.1118 191.054H145.926C146.793 191.054 147.495 190.351 147.495 189.484V119.817C147.495 118.95 146.793 118.247 145.926 118.247Z" fill="#C3E2F4"/>
<path d="M144.371 125.805V183.496C144.371 185.939 142.392 187.919 139.951 187.919H133.28V125.117H50.2218C49.1918 125.117 48.3525 124.283 48.3525 123.247C48.3525 122.217 49.187 121.377 50.2218 121.377H139.951C142.392 121.377 144.371 123.357 144.371 125.8V125.805Z" fill="#005587"/>
<path d="M111.888 110.207C101.412 107.464 90.6922 113.738 87.9503 124.225C85.2084 134.707 91.479 145.437 101.96 148.176C112.437 150.919 123.161 144.645 125.898 134.158C128.64 123.676 122.369 112.951 111.888 110.207ZM122.193 133.195C121.125 137.274 118.531 140.695 114.892 142.827C111.254 144.96 107.005 145.547 102.923 144.478C94.507 142.274 89.4476 133.624 91.6507 125.198C92.7188 121.119 95.3081 117.698 98.9513 115.565C102.461 113.509 106.543 112.894 110.491 113.81C110.634 113.843 110.772 113.881 110.915 113.919C119.198 116.085 124.224 124.487 122.293 132.779C122.26 132.918 122.226 133.061 122.193 133.199V133.195Z" fill="#FCC659"/>
<path d="M122.298 132.775C122.265 132.913 122.231 133.056 122.198 133.195C121.13 137.274 118.536 140.695 114.897 142.828C111.259 144.96 107.01 145.547 102.928 144.478C94.5118 142.269 89.4523 133.624 91.6554 125.198C92.7236 121.119 95.3129 117.694 98.956 115.566C102.466 113.509 106.547 112.894 110.496 113.81C110.639 113.843 110.777 113.881 110.92 113.92C119.203 116.086 124.229 124.488 122.298 132.78V132.775Z" fill="#F49B51"/>
<path d="M103.209 140.732L103.882 137.836C102.227 137.421 100.629 136.505 99.7949 135.556L100.93 133.795C101.802 134.721 103.161 135.613 104.768 135.99C106.805 136.462 108.45 135.608 108.831 133.976C109.198 132.402 108.307 131.166 106.39 129.811C103.734 127.984 102.236 126.247 102.818 123.752C103.371 121.371 105.484 119.964 108.216 120.145L108.888 117.249L110.662 117.664L110.014 120.446C111.721 120.904 112.789 121.634 113.504 122.316L112.346 124.038C111.826 123.556 110.796 122.65 108.965 122.225C106.757 121.71 105.622 122.836 105.355 123.981C105.007 125.47 105.894 126.462 108.145 128.075C110.815 129.964 111.959 131.806 111.363 134.353C110.834 136.62 108.769 138.371 105.703 138.17L105.012 141.152L103.209 140.732Z" fill="#FCC659"/>
<path d="M78.1752 94.9166C67.3506 94.6208 58.3334 103.166 58.0377 114.001C57.7421 124.831 66.2825 133.858 77.1118 134.149C87.9363 134.445 96.9584 125.9 97.2493 115.065C97.5449 104.235 89.0045 95.2124 78.1752 94.9166ZM93.4249 114.965C93.3105 119.182 91.5604 123.099 88.4942 126.005C85.4329 128.906 81.4321 130.442 77.2119 130.328C68.5142 130.089 61.6237 122.818 61.8621 114.106C61.9765 109.888 63.7218 105.971 66.788 103.066C69.7397 100.265 73.5783 98.7383 77.6316 98.7383C77.7794 98.7383 77.9224 98.7383 78.0703 98.7478C86.6298 98.9768 93.4249 106.024 93.4249 114.531C93.4249 114.674 93.4249 114.817 93.4249 114.96V114.965Z" fill="#FCC659"/>
<path d="M93.4292 114.53C93.4292 114.674 93.4292 114.817 93.4292 114.96C93.3147 119.177 91.5647 123.095 88.4985 126C85.4371 128.901 81.4316 130.437 77.2162 130.323C68.5184 130.084 61.6279 122.808 61.8664 114.101C61.9808 109.883 63.7261 105.966 66.7922 103.061C69.744 100.26 73.5826 98.7334 77.6359 98.7334C77.7837 98.7334 77.9267 98.7334 78.0746 98.7429C86.6341 98.9719 93.434 106.019 93.434 114.526L93.4292 114.53Z" fill="#F49B51"/>
<path d="M76.6441 126.616V123.644C74.9369 123.615 73.1726 123.085 72.1426 122.351L72.8483 120.38C73.9069 121.086 75.4376 121.644 77.0828 121.644C79.1714 121.644 80.5828 120.437 80.5828 118.763C80.5828 117.088 79.4336 116.143 77.2592 115.261C74.2598 114.082 72.4048 112.732 72.4048 110.17C72.4048 107.608 74.1406 105.876 76.8443 105.432V102.46H78.6659V105.313C80.4303 105.37 81.6367 105.843 82.4903 106.344L81.7559 108.285C81.1408 107.932 79.9343 107.284 78.0508 107.284C75.7857 107.284 74.9322 108.639 74.9322 109.812C74.9322 111.344 76.0194 112.107 78.5801 113.166C81.6081 114.402 83.1388 115.934 83.1388 118.553C83.1388 120.876 81.5222 123.057 78.4942 123.553V126.611H76.6393L76.6441 126.616Z" fill="#FCC659"/>
<path d="M90.411 100.069C88.8946 98.7382 87.1922 97.66 85.3516 96.8632L85.5328 96.4434C87.4163 97.2592 89.1616 98.3661 90.7114 99.7259L90.411 100.069Z" fill="#2E4882"/>
<path d="M88.7136 131.143L88.4561 130.761C93.649 127.264 96.8486 121.443 97.0203 115.188C97.1252 111.305 96.0809 107.526 94.0066 104.258L94.3929 104.01C96.5196 107.354 97.5878 111.219 97.4781 115.198C97.3064 121.596 94.0257 127.555 88.7136 131.138V131.143Z" fill="#2E4882"/>
<path d="M92.6336 110.504C92.6002 110.371 92.5621 110.237 92.5239 110.103C91.2746 105.786 88.2275 102.222 84.1504 100.313L84.3316 99.9268C88.5184 101.888 91.6513 105.552 92.934 109.975C92.9769 110.123 93.0151 110.261 93.0532 110.395L92.6383 110.499L92.6336 110.504Z" fill="#2E4882"/>
<path d="M84.1499 100.317C80.8739 98.7806 77.1402 98.4371 73.6448 99.3484L73.5352 98.9333C77.1306 97.9981 80.9645 98.3512 84.3311 99.9257L84.1499 100.312V100.317Z" fill="#2E4882"/>
<path d="M91.3555 122.536L90.9883 122.322C92.0374 120.537 92.7145 118.605 92.9958 116.582L93.4202 116.639C93.1293 118.719 92.4379 120.704 91.3602 122.536H91.3555Z" fill="#2E4882"/>
<path d="M139.27 125.194H46.0641C45.224 125.194 44.543 125.876 44.543 126.716V195.558C44.543 196.399 45.224 197.08 46.0641 197.08H139.27C140.11 197.08 140.791 196.399 140.791 195.558V126.716C140.791 125.876 140.11 125.194 139.27 125.194Z" fill="#C3E2F4"/>
<path d="M81.2895 194.251H52.3398C50.1606 194.251 48.3867 192.476 48.3867 190.295V184.723H48.8445V190.295C48.8445 192.223 50.4133 193.788 52.3351 193.788H81.2847V194.246L81.2895 194.251Z" fill="#2E4882"/>
<path d="M136.938 139.655H136.48V131.969C136.48 130.041 134.911 128.477 132.99 128.477H95.1895V128.019H132.99C135.169 128.019 136.943 129.793 136.943 131.974V139.66L136.938 139.655Z" fill="#2E4882"/>
<path d="M88.3943 128.019H79.8682V128.477H88.3943V128.019Z" fill="#2E4882"/>
<path d="M48.8445 167.781H48.3867V178.631H48.8445V167.781Z" fill="#2E4882"/>
<path d="M147.376 146.373V166.688C147.376 169.241 145.311 171.307 142.76 171.307H125.198C119.58 171.307 115.031 166.755 115.031 161.135C115.031 158.325 116.171 155.782 118.007 153.94C119.843 152.098 122.389 150.963 125.198 150.963H142.76C142.889 150.963 143.018 150.963 143.146 150.982C145.516 150.786 147.376 148.797 147.376 146.378V146.373Z" fill="#005587"/>
<path d="M124.267 165.882C126.888 165.882 129.012 163.757 129.012 161.135C129.012 158.513 126.888 156.388 124.267 156.388C121.647 156.388 119.522 158.513 119.522 161.135C119.522 163.757 121.647 165.882 124.267 165.882Z" fill="white"/>
<path d="M124.268 166.111V165.653C126.757 165.653 128.783 163.625 128.783 161.134C128.783 158.644 126.757 156.616 124.268 156.616V156.158C127.009 156.158 129.241 158.391 129.241 161.134C129.241 163.878 127.009 166.111 124.268 166.111Z" fill="#2E4882"/>
<path d="M119.752 161.134H119.294C119.294 159.803 119.809 158.553 120.753 157.618L121.077 157.943C120.224 158.797 119.756 159.932 119.756 161.134H119.752Z" fill="#2E4882"/>
<path d="M42.6688 165.033C40.2083 162.704 37.4092 160.658 34.3525 158.95L34.5767 158.549C37.6667 160.276 40.4992 162.342 42.9883 164.699L42.6736 165.033H42.6688Z" fill="#2E4882"/>
<path d="M29.3356 156.54C27.6666 155.858 25.907 155.247 24.1045 154.722L24.2332 154.283C26.05 154.808 27.8287 155.428 29.512 156.115L29.3403 156.54H29.3356Z" fill="#2E4882"/>
<path d="M51.7482 158.225C41.267 160.949 34.9774 171.665 37.705 182.157C40.4278 192.643 51.1379 198.941 61.6238 196.207C72.105 193.483 78.3995 182.767 75.6671 172.276C72.9443 161.789 62.2342 155.496 51.7482 158.225ZM71.9668 173.244C73.0254 177.328 72.4341 181.579 70.2978 185.22C68.1663 188.855 64.7425 191.446 60.6606 192.51C52.2394 194.7 43.6036 189.628 41.4101 181.198C40.3515 177.114 40.938 172.863 43.0743 169.227C45.1343 165.715 48.396 163.182 52.2871 162.056C52.4301 162.013 52.5684 161.98 52.7115 161.942C60.9992 159.785 69.4824 164.661 71.8475 172.834C71.8857 172.972 71.9286 173.111 71.962 173.249L71.9668 173.244Z" fill="#FCC659"/>
<path d="M71.8479 172.828C71.8861 172.967 71.929 173.105 71.9624 173.244C73.021 177.328 72.4297 181.579 70.2934 185.219C68.1619 188.855 64.7381 191.445 60.6562 192.509C52.235 194.699 43.5945 189.627 41.4057 181.192C40.3471 177.108 40.9336 172.857 43.0699 169.222C45.1299 165.71 48.3916 163.177 52.2827 162.051C52.4258 162.008 52.564 161.974 52.7071 161.936C60.9948 159.78 69.478 164.656 71.8432 172.828H71.8479Z" fill="#F49B51"/>
<path d="M59.0822 189.104L58.2573 186.25C56.6122 186.694 54.7667 186.68 53.5746 186.255L53.7034 184.165C54.9146 184.547 56.5406 184.662 58.1238 184.204C60.1313 183.622 61.1518 182.071 60.6845 180.458C60.2362 178.903 58.8534 178.259 56.5216 178.02C53.3123 177.724 51.157 176.937 50.4465 174.48C49.7693 172.133 50.9185 169.871 53.3982 168.693L52.5732 165.84L54.3233 165.334L55.1148 168.077C56.8267 167.643 58.1142 167.762 59.0727 168.006L58.9058 170.076C58.2144 169.909 56.8744 169.623 55.0672 170.148C52.8927 170.778 52.4492 172.314 52.7735 173.445C53.1979 174.914 54.4568 175.348 57.2082 175.654C60.4603 175.997 62.3535 177.042 63.083 179.561C63.7268 181.794 62.7778 184.337 60.0073 185.659L60.8561 188.598L59.0775 189.113L59.0822 189.104Z" fill="#FCC659"/>
<path d="M70.4215 191.532L70.1258 191.222C75.1804 186.355 77.2261 179.117 75.457 172.333C74.8419 169.957 73.7976 167.753 72.367 165.782L72.7104 165.529C74.1743 167.543 75.2377 169.795 75.8719 172.223C77.6744 179.156 75.5858 186.556 70.4215 191.527V191.532ZM67.8417 161.34C65.9915 160.038 63.9458 159.079 61.7666 158.482L61.881 158.067C64.1079 158.673 66.1966 159.656 68.0897 160.987L67.8417 161.336V161.34Z" fill="#2E4882"/>
<path d="M71.7566 173.296C71.7233 173.158 71.6803 173.024 71.6422 172.886C70.3976 168.582 67.3458 165.018 63.2734 163.105L63.4546 162.719C67.6414 164.68 70.7743 168.344 72.0523 172.767C72.0904 172.905 72.1333 173.048 72.1715 173.187L71.7566 173.296Z" fill="#2E4882"/>
<path d="M63.2739 163.11C59.9979 161.574 56.2642 161.23 52.7689 162.141L52.6592 161.726C56.2546 160.791 60.0885 161.144 63.4551 162.719L63.2739 163.105V163.11Z" fill="#2E4882"/>
<path d="M41.2005 181.245C40.1228 177.104 40.7237 172.795 42.8886 169.107L43.2558 169.322C41.1481 172.91 40.5663 177.104 41.6106 181.131L41.1958 181.24L41.2005 181.245Z" fill="#2E4882"/>
<path d="M70.4785 185.324L70.1113 185.11C71.1604 183.325 71.8375 181.393 72.1189 179.365L72.5433 179.422C72.2524 181.503 71.561 183.487 70.4833 185.32L70.4785 185.324Z" fill="#2E4882"/>
</g>
<defs>
<clipPath id="clip0_1894_65235">
<rect width="309" height="192" fill="white"/>
</clipPath>
</defs>
</svg>
